<svg xmlns="http://www.w3.org/2000/svg" xml:space="preserve" width="91" height="91"><switch transform="translate(-4.5 -4.5)"><g><path d="M45.5 0C20.371 0 0 20.37 0 45.5S20.371 91 45.5 91 91 70.63 91 45.5 70.629 0 45.5 0zm0 9.332A36.169 36.169 0 0 1 81.668 45.5 36.169 36.169 0 0 1 45.5 81.668 36.169 36.169 0 0 1 9.332 45.5 36.169 36.169 0 0 1 45.5 9.332z" style="fill:#ff3c3c;fill-opacity:1;stroke:none;stroke-width:1;stroke-linecap:round;stroke-linejoin:round;stroke-miterlimit:4;stroke-dasharray:none;stroke-dashoffset:0;stroke-opacity:1;paint-order:markers fill stroke" transform="translate(4.5 4.5)"/><path d="M45.5 11.656A33.844 33.844 0 0 0 11.656 45.5 33.844 33.844 0 0 0 45.5 79.344 33.844 33.844 0 0 0 79.344 45.5 33.844 33.844 0 0 0 45.5 11.656zm0 2.844a31 31 0 0 1 31 31 31 31 0 0 1-31 31 31 31 0 0 1-31-31 31 31 0 0 1 31-31z" style="fill:#ff3c3c;fill-opacity:1;stroke:none;stroke-width:1.26573896" transform="translate(4.5 4.5)"/><text xml:space="preserve" x="50.133" y="36.103" style="font-style:normal;font-weight:400;line-height:0%;font-family:sans-serif;letter-spacing:0;word-spacing:0;fill:#2a2a2a;fill-opacity:1;stroke:none"><tspan x="50.133" y="36.103" dy="5.14" style="font-style:normal;font-variant:normal;font-weight:700;font-stretch:normal;font-size:24px;line-height:94.99999881%;font-family:&quot;Malgun Gothic&quot;;-inkscape-font-specification:&quot;Malgun Gothic Bold&quot;;text-align:center;text-anchor:middle;fill:#2a2a2a;fill-opacity:1">B</tspan><tspan x="50.133" y="75.432" style="font-style:normal;font-variant:normal;font-weight:700;font-stretch:normal;font-size:45.33333588px;line-height:94.99999881%;font-family:&quot;Malgun Gothic&quot;;-inkscape-font-specification:&quot;Malgun Gothic Bold&quot;;text-align:center;text-anchor:middle;fill:#2a2a2a;fill-opacity:1">9</tspan></text></g></switch></svg>